<svg xmlns="http://www.w3.org/2000/svg" width="16" height="17" viewBox="0 0 16 17" fill="none">
  <path d="M13.6672 13.4601C13.8624 13.6553 13.8624 13.9719 13.6672 14.1672C13.4719 14.3624 13.1553 14.3624 12.9601 14.1672L2.35348 3.56058C2.15822 3.36532 2.15822 3.04874 2.35348 2.85348C2.54874 2.65822 2.86532 2.65822 3.06058 2.85348L13.6672 13.4601Z" fill="#FF5555"/>
  <path d="M3.06065 14.1673C2.86539 14.3625 2.54881 14.3625 2.35355 14.1673C2.15828 13.972 2.15828 13.6554 2.35355 13.4602L12.9601 2.85356C13.1554 2.6583 13.472 2.6583 13.6673 2.85356C13.8625 3.04883 13.8625 3.36541 13.6673 3.56067L3.06065 14.1673Z" fill="#FF5555"/>
</svg>