<svg xmlns="http://www.w3.org/2000/svg" width="16" height="16" viewBox="0 0 16 16" fill="none">
  <path d="M8.00065 1.33203C4.32732 1.33203 1.33398 4.32536 1.33398 7.9987C1.33398 11.672 4.32732 14.6654 8.00065 14.6654C11.674 14.6654 14.6673 11.672 14.6673 7.9987C14.6673 4.32536 11.674 1.33203 8.00065 1.33203ZM7.50065 5.33203C7.50065 5.0587 7.72732 4.83203 8.00065 4.83203C8.27398 4.83203 8.50065 5.0587 8.50065 5.33203V8.66536C8.50065 8.9387 8.27398 9.16536 8.00065 9.16536C7.72732 9.16536 7.50065 8.9387 7.50065 8.66536V5.33203ZM8.61398 10.9187C8.58065 11.0054 8.53398 11.072 8.47398 11.1387C8.40732 11.1987 8.33398 11.2454 8.25398 11.2787C8.17398 11.312 8.08732 11.332 8.00065 11.332C7.91398 11.332 7.82732 11.312 7.74732 11.2787C7.66732 11.2454 7.59398 11.1987 7.52732 11.1387C7.46732 11.072 7.42065 11.0054 7.38732 10.9187C7.35398 10.8387 7.33398 10.752 7.33398 10.6654C7.33398 10.5787 7.35398 10.492 7.38732 10.412C7.42065 10.332 7.46732 10.2587 7.52732 10.192C7.59398 10.132 7.66732 10.0854 7.74732 10.052C7.90732 9.98536 8.09398 9.98536 8.25398 10.052C8.33398 10.0854 8.40732 10.132 8.47398 10.192C8.53398 10.2587 8.58065 10.332 8.61398 10.412C8.64732 10.492 8.66732 10.5787 8.66732 10.6654C8.66732 10.752 8.64732 10.8387 8.61398 10.9187Z" fill="#FF5555"/>
</svg>