<svg xmlns="http://www.w3.org/2000/svg" width="16" height="16" viewBox="0 0 16 16" fill="none">
  <path d="M8.00065 1.33203C4.32732 1.33203 1.33398 4.32536 1.33398 7.9987C1.33398 11.672 4.32732 14.6654 8.00065 14.6654C11.674 14.6654 14.6673 11.672 14.6673 7.9987C14.6673 4.32536 11.674 1.33203 8.00065 1.33203ZM11.1873 6.46536L7.40732 10.2454C7.31398 10.3387 7.18732 10.392 7.05398 10.392C6.92065 10.392 6.79398 10.3387 6.70065 10.2454L4.81398 8.3587C4.62065 8.16536 4.62065 7.84536 4.81398 7.65203C5.00732 7.4587 5.32732 7.4587 5.52065 7.65203L7.05398 9.18536L10.4807 5.7587C10.674 5.56536 10.994 5.56536 11.1873 5.7587C11.3807 5.95203 11.3807 6.26536 11.1873 6.46536Z" fill="#52C41A"/>
</svg>