<svg xmlns="http://www.w3.org/2000/svg" width="32" height="33" viewBox="0 0 32 33" fill="none">
  <path d="M15.9998 30.8332C8.09317 30.8332 1.6665 24.4065 1.6665 16.4998C1.6665 8.59317 8.09317 2.1665 15.9998 2.1665C23.9065 2.1665 30.3332 8.59317 30.3332 16.4998C30.3332 24.4065 23.9065 30.8332 15.9998 30.8332ZM15.9998 4.1665C9.19984 4.1665 3.6665 9.69984 3.6665 16.4998C3.6665 23.2998 9.19984 28.8332 15.9998 28.8332C22.7998 28.8332 28.3332 23.2998 28.3332 16.4998C28.3332 9.69984 22.7998 4.1665 15.9998 4.1665Z" fill="white" />
  <path d="M12.2266 21.2733C11.9733 21.2733 11.72 21.18 11.52 20.98C11.1333 20.5933 11.1333 19.9533 11.52 19.5666L19.0666 12.02C19.4533 11.6333 20.0933 11.6333 20.48 12.02C20.8666 12.4066 20.8666 13.0466 20.48 13.4333L12.9333 20.98C12.7466 21.18 12.48 21.2733 12.2266 21.2733Z" fill="white" />
  <path d="M19.7733 21.2733C19.52 21.2733 19.2666 21.18 19.0666 20.98L11.52 13.4333C11.1333 13.0466 11.1333 12.4066 11.52 12.02C11.9066 11.6333 12.5466 11.6333 12.9333 12.02L20.48 19.5666C20.8666 19.9533 20.8666 20.5933 20.48 20.98C20.28 21.18 20.0266 21.2733 19.7733 21.2733Z" fill="white" />
</svg>