<svg xmlns="http://www.w3.org/2000/svg" width="12" height="13" viewBox="0 0 12 13" fill="none">
  <path d="M5.7 11.875H3.8C1.605 11.875 0.625 10.895 0.625 8.7V6.8C0.625 4.605 1.605 3.625 3.8 3.625H5.3C5.505 3.625 5.675 3.795 5.675 4C5.675 4.205 5.505 4.375 5.3 4.375H3.8C2.01 4.375 1.375 5.01 1.375 6.8V8.7C1.375 10.49 2.01 11.125 3.8 11.125H5.7C7.49 11.125 8.125 10.49 8.125 8.7V7.2C8.125 6.995 8.295 6.825 8.5 6.825C8.705 6.825 8.875 6.995 8.875 7.2V8.7C8.875 10.895 7.895 11.875 5.7 11.875Z" fill="#292D32"/>
  <path d="M8.4998 7.57499H6.8998C5.4948 7.57499 4.9248 7.00499 4.9248 5.59999V3.99999C4.9248 3.84999 5.0148 3.70999 5.1548 3.65499C5.2948 3.59499 5.4548 3.62999 5.5648 3.73499L8.7648 6.93499C8.8698 7.03999 8.9048 7.20499 8.8448 7.34499C8.7898 7.48499 8.6498 7.57499 8.4998 7.57499ZM5.6748 4.90499V5.59999C5.6748 6.59499 5.9048 6.82499 6.8998 6.82499H7.5948L5.6748 4.90499Z" fill="#292D32"/>
  <path d="M7.7998 1.875H5.7998C5.5948 1.875 5.4248 1.705 5.4248 1.5C5.4248 1.295 5.5948 1.125 5.7998 1.125H7.7998C8.0048 1.125 8.1748 1.295 8.1748 1.5C8.1748 1.705 8.0048 1.875 7.7998 1.875Z" fill="#292D32"/>
  <path d="M3.5 3.375C3.295 3.375 3.125 3.205 3.125 3C3.125 1.965 3.965 1.125 5 1.125H6.31C6.515 1.125 6.685 1.295 6.685 1.5C6.685 1.705 6.515 1.875 6.31 1.875H5C4.38 1.875 3.875 2.38 3.875 3C3.875 3.205 3.705 3.375 3.5 3.375Z" fill="#292D32"/>
  <path d="M9.59473 9.375C9.38973 9.375 9.21973 9.205 9.21973 9C9.21973 8.795 9.38973 8.625 9.59473 8.625C10.1647 8.625 10.6247 8.16 10.6247 7.595V4.5C10.6247 4.295 10.7947 4.125 10.9997 4.125C11.2047 4.125 11.3747 4.295 11.3747 4.5V7.595C11.3747 8.575 10.5747 9.375 9.59473 9.375Z" fill="#292D32"/>
  <path d="M11 4.87499H9.5C8.17 4.87499 7.625 4.32999 7.625 2.99999V1.49999C7.625 1.34999 7.715 1.20999 7.855 1.15499C7.995 1.09499 8.155 1.12999 8.265 1.23499L11.265 4.23499C11.37 4.33999 11.405 4.50499 11.345 4.64499C11.29 4.78499 11.15 4.87499 11 4.87499ZM8.375 2.40499V2.99999C8.375 3.91499 8.585 4.12499 9.5 4.12499H10.095L8.375 2.40499Z" fill="#292D32"/>
</svg>