<svg xmlns="http://www.w3.org/2000/svg" width="17" height="17" viewBox="0 0 17 17" fill="none">
  <path d="M14.5004 4.98681C14.4871 4.98681 14.4671 4.98681 14.4471 4.98681C10.9204 4.63348 7.40043 4.50015 3.91377 4.85348L2.55377 4.98681C2.27377 5.01348 2.0271 4.81348 2.00043 4.53348C1.97377 4.25348 2.17377 4.01348 2.4471 3.98681L3.8071 3.85348C7.35377 3.49348 10.9471 3.63348 14.5471 3.98681C14.8204 4.01348 15.0204 4.26015 14.9938 4.53348C14.9738 4.79348 14.7538 4.98681 14.5004 4.98681Z" fill="#4D4D4D"/>
  <path d="M6.16651 4.3135C6.13984 4.3135 6.11318 4.3135 6.07984 4.30683C5.81318 4.26016 5.62651 4.00016 5.67318 3.7335L5.81984 2.86016C5.92651 2.22016 6.07318 1.3335 7.62651 1.3335H9.37318C10.9332 1.3335 11.0798 2.2535 11.1798 2.86683L11.3265 3.7335C11.3732 4.00683 11.1865 4.26683 10.9198 4.30683C10.6465 4.3535 10.3865 4.16683 10.3465 3.90016L10.1998 3.0335C10.1065 2.4535 10.0865 2.34016 9.37984 2.34016H7.63318C6.92651 2.34016 6.91318 2.4335 6.81318 3.02683L6.65984 3.8935C6.61984 4.14016 6.40651 4.3135 6.16651 4.3135Z" fill="#4D4D4D"/>
  <path d="M10.6396 15.6667H6.35961C4.03294 15.6667 3.93961 14.3801 3.86627 13.3401L3.43294 6.62672C3.41294 6.35338 3.62627 6.11338 3.89961 6.09338C4.17961 6.08005 4.41294 6.28672 4.43294 6.56005L4.86627 13.2734C4.93961 14.2867 4.96627 14.6667 6.35961 14.6667H10.6396C12.0396 14.6667 12.0663 14.2867 12.1329 13.2734L12.5663 6.56005C12.5863 6.28672 12.8263 6.08005 13.0996 6.09338C13.3729 6.11338 13.5863 6.34672 13.5663 6.62672L13.1329 13.3401C13.0596 14.3801 12.9663 15.6667 10.6396 15.6667Z" fill="#4D4D4D"/>
  <path d="M9.60672 12H7.38672C7.11339 12 6.88672 11.7733 6.88672 11.5C6.88672 11.2267 7.11339 11 7.38672 11H9.60672C9.88005 11 10.1067 11.2267 10.1067 11.5C10.1067 11.7733 9.88005 12 9.60672 12Z" fill="#4D4D4D"/>
  <path d="M10.1663 9.3335H6.83301C6.55967 9.3335 6.33301 9.10683 6.33301 8.8335C6.33301 8.56016 6.55967 8.3335 6.83301 8.3335H10.1663C10.4397 8.3335 10.6663 8.56016 10.6663 8.8335C10.6663 9.10683 10.4397 9.3335 10.1663 9.3335Z" fill="#4D4D4D"/>
</svg>