<svg xmlns="http://www.w3.org/2000/svg" width="16" height="17" viewBox="0 0 16 17" fill="none">
	<path d="M14 15.1667H2C1.72667 15.1667 1.5 14.9401 1.5 14.6667C1.5 14.3934 1.72667 14.1667 2 14.1667H14C14.2733 14.1667 14.5 14.3934 14.5 14.6667C14.5 14.9401 14.2733 15.1667 14 15.1667Z" fill="white" />
	<path d="M12.6799 2.81994C11.3866 1.52661 10.1199 1.49328 8.79322 2.81994L7.98655 3.62661C7.91989 3.69328 7.89322 3.79994 7.91989 3.89328C8.42655 5.65994 9.83989 7.07328 11.6066 7.57994C11.6332 7.58661 11.6599 7.59328 11.6866 7.59328C11.7599 7.59328 11.8266 7.56661 11.8799 7.51328L12.6799 6.70661C13.3399 6.05328 13.6599 5.41994 13.6599 4.77994C13.6666 4.11994 13.3466 3.47994 12.6799 2.81994Z" fill="white" />
	<path d="M10.4066 8.18678C10.2132 8.09345 10.0266 8.00011 9.84655 7.89345C9.69989 7.80678 9.55989 7.71345 9.41989 7.61345C9.30655 7.54011 9.17322 7.43345 9.04655 7.32678C9.03322 7.32011 8.98655 7.28011 8.93322 7.22678C8.71322 7.04011 8.46655 6.80011 8.24655 6.53345C8.22655 6.52011 8.19322 6.47345 8.14655 6.41345C8.07989 6.33345 7.96655 6.20011 7.86655 6.04678C7.78655 5.94678 7.69322 5.80011 7.60655 5.65345C7.49989 5.47345 7.40655 5.29345 7.31322 5.10678C7.19085 4.84455 6.84668 4.76666 6.64206 4.97127L2.89322 8.72011C2.80655 8.80678 2.72655 8.97345 2.70655 9.08678L2.34655 11.6401C2.27989 12.0934 2.40655 12.5201 2.68655 12.8068C2.92655 13.0401 3.25989 13.1668 3.61989 13.1668C3.69989 13.1668 3.77989 13.1601 3.85989 13.1468L6.41989 12.7868C6.53989 12.7668 6.70655 12.6868 6.78655 12.6001L10.5416 8.84509C10.7421 8.64456 10.6668 8.29954 10.4066 8.18678Z" fill="white" />
</svg>
