<svg xmlns="http://www.w3.org/2000/svg" width="16" height="17" viewBox="0 0 16 17" fill="none">
  <path d="M13.7336 3.23336V4.70002C13.7336 5.23336 13.4002 5.90002 13.0669 6.23336L10.2002 8.76669C9.80025 9.10002 9.53358 9.76669 9.53358 10.3V13.1667C9.53358 13.5667 9.26692 14.1 8.93358 14.3L8.00025 14.9C7.13358 15.4334 5.93358 14.8334 5.93358 13.7667V10.2334C5.93358 9.76669 5.66692 9.16669 5.40025 8.83336L5.08692 8.50669C4.88025 8.28669 4.84025 7.95336 5.00692 7.69336L8.42025 2.21336C8.54025 2.02002 8.75358 1.90002 8.98692 1.90002H12.4002C13.1336 1.90002 13.7336 2.50002 13.7336 3.23336Z" fill="#999999"/>
  <path d="M6.89994 2.92002L4.53327 6.71336C4.3066 7.08002 3.7866 7.13336 3.4866 6.82002L2.8666 6.16669C2.53327 5.83336 2.2666 5.23336 2.2666 4.83336V3.30002C2.2666 2.50002 2.8666 1.90002 3.59993 1.90002H6.33327C6.85327 1.90002 7.17327 2.47336 6.89994 2.92002Z" fill="#999999"/>
</svg>