<svg t="1706261277637" class="icon" viewBox="0 0 1024 1024" version="1.1" xmlns="http://www.w3.org/2000/svg" p-id="8004" width="48" height="48">
	<path d="M565.76 512l335.36 335.36c15.36 15.36 15.36 38.4 0 53.76-15.36 15.36-38.4 15.36-53.76 0L512 565.76 176.64 901.12c-15.36 15.36-38.4 15.36-53.76 0-15.36-15.36-15.36-38.4 0-53.76L458.24 512 122.88 176.64c-15.36-15.36-15.36-38.4 0-53.76 15.36-15.36 38.4-15.36 53.76 0L512 458.24 847.36 122.88c15.36-15.36 38.4-15.36 53.76 0 15.36 15.36 15.36 38.4 0 53.76L565.76 512z" fill="#ffffff" p-id="8005">
	</path>
</svg>
