<svg xmlns="http://www.w3.org/2000/svg" width="15" height="14" viewBox="0 0 15 14" fill="none">
  <path d="M5.74641 11.1728C5.6457 11.1694 5.54675 11.1455 5.45561 11.1025C5.36447 11.0595 5.28308 10.9984 5.21641 10.9228C5.07596 10.7822 4.99707 10.5916 4.99707 10.3928C4.99707 10.1941 5.07596 10.0034 5.21641 9.86281L8.21641 6.86281L5.21641 3.86281C5.15709 3.7188 5.14407 3.5599 5.17916 3.40815C5.21426 3.2564 5.29573 3.11935 5.41226 3.01601C5.52879 2.91267 5.67461 2.84817 5.82946 2.83147C5.98431 2.81477 6.14053 2.8467 6.27641 2.92282L9.77641 6.42282C9.91686 6.56344 9.99575 6.75406 9.99575 6.95282C9.99575 7.15157 9.91686 7.34219 9.77641 7.48282L6.27641 10.9228C6.20974 10.9984 6.12835 11.0595 6.03721 11.1025C5.94608 11.1455 5.84712 11.1694 5.74641 11.1728Z" fill="#6C757D"/>
</svg>