<svg xmlns="http://www.w3.org/2000/svg" width="21" height="20" viewBox="0 0 21 20" fill="none">
	<path d="M14.3501 1.5918H6.31676C4.5501 1.5918 3.1001 3.0418 3.1001 4.80846V16.5501C3.1001 18.0501 4.1751 18.6835 5.49176 17.9585L9.55843 15.7001C9.99176 15.4585 10.6918 15.4585 11.1168 15.7001L15.1834 17.9585C16.5001 18.6918 17.5751 18.0585 17.5751 16.5501V4.80846C17.5668 3.0418 16.1251 1.5918 14.3501 1.5918ZM13.3501 7.52513L10.0168 10.8585C9.89176 10.9835 9.73343 11.0418 9.5751 11.0418C9.41676 11.0418 9.25843 10.9835 9.13343 10.8585L7.88343 9.60846C7.64176 9.3668 7.64176 8.9668 7.88343 8.72513C8.1251 8.48346 8.5251 8.48346 8.76676 8.72513L9.5751 9.53346L12.4668 6.6418C12.7084 6.40013 13.1084 6.40013 13.3501 6.6418C13.5918 6.88346 13.5918 7.28346 13.3501 7.52513Z" fill="#666666" />
</svg>
