<svg xmlns="http://www.w3.org/2000/svg" width="15" height="14" viewBox="0 0 15 14" fill="none">
<path d="M9.23469 11.1849C9.13615 11.1854 9.03851 11.1662 8.9475 11.1284C8.85649 11.0906 8.77394 11.035 8.70469 10.9649L5.20469 7.46491C5.06424 7.32428 4.98535 7.13366 4.98535 6.93491C4.98535 6.73615 5.06424 6.54553 5.20469 6.40491L8.70469 2.93491C8.84565 2.84351 9.01321 2.80209 9.18051 2.81728C9.34782 2.83247 9.50518 2.90339 9.62737 3.01866C9.74957 3.13394 9.82952 3.28691 9.85442 3.45305C9.87932 3.61918 9.84772 3.78887 9.76469 3.93491L6.76469 6.93491L9.76469 9.93491C9.90514 10.0755 9.98403 10.2662 9.98403 10.4649C9.98403 10.6637 9.90514 10.8543 9.76469 10.9949C9.61996 11.1256 9.42949 11.1939 9.23469 11.1849Z" fill="#6C757D"/>
</svg>