<svg xmlns="http://www.w3.org/2000/svg" width="17" height="17" viewBox="0 0 17 17" fill="none">
  <path d="M8.49973 15.6666C5.03306 15.6666 2.21973 12.8466 2.21973 9.38659C2.21973 8.13993 2.58639 6.93326 3.27973 5.89326C3.43306 5.66659 3.74639 5.59993 3.97306 5.75326C4.19973 5.9066 4.26639 6.21993 4.11306 6.44659C3.53306 7.31326 3.22639 8.33326 3.22639 9.37993C3.22639 12.2933 5.59306 14.6599 8.50639 14.6599C11.4197 14.6599 13.7864 12.2933 13.7864 9.37993C13.7864 6.46659 11.4131 4.09993 8.49973 4.09993C7.88639 4.09993 7.28639 4.18659 6.71973 4.35993C6.45306 4.43993 6.17306 4.29326 6.09306 4.02659C6.01306 3.75993 6.15973 3.47993 6.42639 3.39993C7.09306 3.19993 7.78639 3.09326 8.49973 3.09326C11.9664 3.09326 14.7797 5.91326 14.7797 9.37326C14.7797 12.8333 11.9664 15.6666 8.49973 15.6666Z" fill="#4D4D4D"/>
  <path d="M5.74625 4.54658C5.63292 4.54658 5.51292 4.50658 5.41959 4.42658C5.20626 4.23992 5.18626 3.92658 5.36626 3.71992L7.29292 1.50658C7.47292 1.29992 7.79292 1.27325 7.99959 1.45992C8.20626 1.63992 8.22625 1.95992 8.04625 2.16658L6.11959 4.37325C6.01959 4.48658 5.87959 4.54658 5.74625 4.54658Z" fill="#4D4D4D"/>
  <path d="M7.99338 6.18659C7.89338 6.18659 7.78672 6.15325 7.70005 6.09325L5.44672 4.44659C5.22672 4.28659 5.18005 3.97325 5.34005 3.75325C5.50005 3.52659 5.81338 3.47992 6.04005 3.63992L8.28672 5.27992C8.50672 5.43992 8.56005 5.75325 8.39338 5.97992C8.30005 6.11992 8.14672 6.18659 7.99338 6.18659Z" fill="#4D4D4D"/>
</svg>