<svg xmlns="http://www.w3.org/2000/svg" width="61" height="61" viewBox="0 0 61 61" fill="none">
  <path d="M55.2454 32.9276V45.3438C55.2454 49.102 52.1986 52.1488 48.4403 52.1488H12.559C8.80073 52.1488 5.75391 49.102 5.75391 45.3438V15.6488C5.75391 11.8906 8.80073 8.84375 12.559 8.84375H48.4403C52.1986 8.84375 55.2454 11.8906 55.2454 15.6488V32.9276ZM51.5336 28.5995V15.6488C51.5336 15.2426 51.4536 14.8404 51.2981 14.4651C51.1427 14.0898 50.9148 13.7488 50.6276 13.4616C50.3404 13.1744 49.9994 12.9465 49.6241 12.7911C49.2488 12.6356 48.8465 12.5556 48.4403 12.5556H12.559C12.1528 12.5556 11.7506 12.6356 11.3753 12.7911C11 12.9465 10.659 13.1744 10.3718 13.4616C10.0845 13.7488 9.85668 14.0898 9.70123 14.4651C9.54578 14.8404 9.46577 15.2426 9.46577 15.6488V35.6279C10.285 35.5063 11.1121 35.4453 11.9403 35.4454C15.8208 35.4398 19.5813 36.7906 22.5711 39.2643C25.5715 31.4465 33.1042 26.1658 41.6353 26.1658C45.4461 26.1658 49.0008 27.1389 51.5336 28.5995ZM51.5336 33.3693C51.2242 32.8867 50.308 32.1134 49.0021 31.4601C47.0156 30.4666 44.4798 29.8776 41.6353 29.8776C34.5728 29.8776 28.3462 34.301 25.9508 40.8215C25.7924 41.2533 25.5214 42 25.1391 43.0591C24.6937 44.2945 23.1409 44.6892 22.1597 43.8163C21.2064 42.9675 20.5036 42.3625 20.0638 42.0099C17.7614 40.1587 14.8945 39.152 11.9403 39.1573C11.1015 39.1573 10.2743 39.2365 9.46577 39.3924V45.3438C9.46577 45.75 9.54578 46.1522 9.70123 46.5275C9.85668 46.9028 10.0845 47.2438 10.3718 47.531C10.659 47.8182 11 48.0461 11.3753 48.2015C11.7506 48.357 12.1528 48.437 12.559 48.437H48.4403C48.8465 48.437 49.2488 48.357 49.6241 48.2015C49.9994 48.0461 50.3404 47.8182 50.6276 47.531C50.9148 47.2438 51.1427 46.9028 51.2981 46.5275C51.4536 46.1522 51.5336 45.75 51.5336 45.3438V33.3687V33.3693ZM19.3641 28.6404C17.8874 28.6404 16.4712 28.0538 15.427 27.0096C14.3829 25.9654 13.7963 24.5492 13.7963 23.0726C13.7963 21.5959 14.3829 20.1797 15.427 19.1355C16.4712 18.0914 17.8874 17.5048 19.3641 17.5048C20.8407 17.5048 22.2569 18.0914 23.3011 19.1355C24.3453 20.1797 24.9319 21.5959 24.9319 23.0726C24.9319 24.5492 24.3453 25.9654 23.3011 27.0096C22.2569 28.0538 20.8407 28.6404 19.3641 28.6404ZM19.3641 24.9285C19.8563 24.9285 20.3284 24.733 20.6764 24.3849C21.0245 24.0369 21.22 23.5648 21.22 23.0726C21.22 22.5803 21.0245 22.1083 20.6764 21.7602C20.3284 21.4122 19.8563 21.2166 19.3641 21.2166C18.8719 21.2166 18.3998 21.4122 18.0517 21.7602C17.7037 22.1083 17.5081 22.5803 17.5081 23.0726C17.5081 23.5648 17.7037 24.0369 18.0517 24.3849C18.3998 24.733 18.8719 24.9285 19.3641 24.9285Z" fill="#3F41E6"/>
</svg>