<svg xmlns="http://www.w3.org/2000/svg" width="60" height="60" viewBox="0 0 60 60" fill="none">
	<path d="M52.6495 29.55L52.2495 29C51.5495 28.15 50.7245 27.475 49.7745 26.975C48.4995 26.25 47.0495 25.875 45.5495 25.875H14.4245C12.9245 25.875 11.4995 26.25 10.1995 26.975C9.22452 27.5 8.34952 28.225 7.62452 29.125C6.19952 30.95 5.52452 33.2 5.74952 35.45L6.67452 47.125C6.99952 50.65 7.42452 55 15.3495 55H44.6495C52.5745 55 52.9745 50.65 53.3245 47.1L54.2495 35.475C54.4745 33.375 53.9245 31.275 52.6495 29.55ZM35.9745 43.35H23.9995C23.0245 43.35 22.2495 42.55 22.2495 41.6C22.2495 40.65 23.0245 39.85 23.9995 39.85H35.9745C36.9495 39.85 37.7245 40.65 37.7245 41.6C37.7245 42.575 36.9495 43.35 35.9745 43.35Z" fill="white" />
	<path d="M8.4502 28.275C9.0002 27.775 9.55019 27.325 10.2002 26.975C11.4752 26.25 12.9252 25.875 14.4252 25.875H45.5752C47.0752 25.875 48.5002 26.25 49.8002 26.975C50.4502 27.325 51.0252 27.775 51.5502 28.3V26.975V24.55C51.5502 15.625 48.8252 12.9 39.9002 12.9H33.9502C32.8502 12.9 32.8252 12.875 32.1752 12.025L29.1752 8C27.7502 6.15 26.6252 5 23.0502 5H20.1002C11.1752 5 8.4502 7.725 8.4502 16.65V27V28.275Z" fill="#CCCCCC" />
</svg>
