<svg xmlns="http://www.w3.org/2000/svg" width="61" height="60" viewBox="0 0 61 60" fill="none">
	<path d="M30.5 5C16.725 5 5.5 16.225 5.5 30C5.5 43.775 16.725 55 30.5 55C44.275 55 55.5 43.775 55.5 30C55.5 16.225 44.275 5 30.5 5ZM28.625 20C28.625 18.975 29.475 18.125 30.5 18.125C31.525 18.125 32.375 18.975 32.375 20V32.5C32.375 33.525 31.525 34.375 30.5 34.375C29.475 34.375 28.625 33.525 28.625 32.5V20ZM32.8 40.95C32.675 41.275 32.5 41.525 32.275 41.775C32.025 42 31.75 42.175 31.45 42.3C31.15 42.425 30.825 42.5 30.5 42.5C30.175 42.5 29.85 42.425 29.55 42.3C29.25 42.175 28.975 42 28.725 41.775C28.5 41.525 28.325 41.275 28.2 40.95C28.075 40.65 28 40.325 28 40C28 39.675 28.075 39.35 28.2 39.05C28.325 38.75 28.5 38.475 28.725 38.225C28.975 38 29.25 37.825 29.55 37.7C30.15 37.45 30.85 37.45 31.45 37.7C31.75 37.825 32.025 38 32.275 38.225C32.5 38.475 32.675 38.75 32.8 39.05C32.925 39.35 33 39.675 33 40C33 40.325 32.925 40.65 32.8 40.95Z" fill="#FBD515" />
</svg>
